<svg xmlns="http://www.w3.org/2000/svg" xmlns:xlink="http://www.w3.org/1999/xlink" viewBox="0 0 1086.55 681.5"><defs><linearGradient id="a" x1="935.46" y1="709.96" x2="1058.1" y2="587.32" gradientUnits="userSpaceOnUse"><stop offset="0" stop-color="#fff"/><stop offset="0.09" stop-color="#f8f8ff"/><stop offset="0.22" stop-color="#e3e3ff"/><stop offset="0.38" stop-color="#c1c1ff"/><stop offset="0.56" stop-color="#9292ff"/><stop offset="0.75" stop-color="#55f"/><stop offset="0.97" stop-color="#0d0dff"/><stop offset="1" stop-color="blue"/></linearGradient><linearGradient id="b" x1="716.88" y1="521.46" x2="892.04" y2="493.72" xlink:href="#a"/><linearGradient id="c" x1="584.9" y1="391.62" x2="727.45" y2="464.25" xlink:href="#a"/><linearGradient id="d" x1="389.68" y1="242.05" x2="471.08" y2="401.81" xlink:href="#a"/><linearGradient id="e" x1="295.2" y1="108.81" x2="268.98" y2="274.37" xlink:href="#a"/><linearGradient id="f" x1="151.1" y1="61.32" x2="28.46" y2="183.96" xlink:href="#a"/></defs><title>contact-graphic</title><polygon points="907 681.5 996.78 526 1086.56 681.5 907 681.5" style="fill:url(#a)"/><polygon points="725.6 576.5 815.38 421 905.15 576.5 725.6 576.5" style="fill:url(#b)"/><polygon points="544.2 471.5 633.98 316 723.75 471.5 544.2 471.5" style="fill:url(#c)"/><polygon points="362.8 365.5 452.58 210 542.36 365.5 362.8 365.5" style="fill:url(#d)"/><polygon points="181.4 260.5 271.18 105 360.95 260.5 181.4 260.5" style="fill:url(#e)"/><polygon points="0 155.5 89.78 0 179.56 155.5 0 155.5" style="fill:url(#f)"/></svg>