<svg xmlns="http://www.w3.org/2000/svg" xmlns:xlink="http://www.w3.org/1999/xlink" viewBox="0 0 180.35 831.5"><defs><style>.a{fill:url(#a);}.b{fill:url(#b);}.c{fill:url(#c);}.d{fill:url(#d);}.e{fill:url(#e);}.f{fill:url(#f);}</style><linearGradient id="a" x1="28.66" y1="859.96" x2="151.3" y2="737.32" gradientUnits="userSpaceOnUse"><stop offset="0" stop-color="#fff"/><stop offset="0.09" stop-color="#f8f8ff"/><stop offset="0.22" stop-color="#e3e3ff"/><stop offset="0.38" stop-color="#c1c1ff"/><stop offset="0.56" stop-color="#9292ff"/><stop offset="0.75" stop-color="#55f"/><stop offset="0.97" stop-color="#0d0dff"/><stop offset="1" stop-color="blue"/></linearGradient><linearGradient id="b" x1="-7.92" y1="641.46" x2="167.24" y2="613.72" xlink:href="#a"/><linearGradient id="c" x1="41.1" y1="481.62" x2="183.65" y2="554.25" xlink:href="#a"/><linearGradient id="d" x1="26.88" y1="302.05" x2="108.28" y2="461.81" xlink:href="#a"/><linearGradient id="e" x1="114.4" y1="138.81" x2="88.18" y2="304.37" xlink:href="#a"/><linearGradient id="f" x1="151.3" y1="61.32" x2="28.66" y2="183.96" xlink:href="#a"/></defs><title>contact-graphic-stacked</title><polygon class="a" points="0.2 831.5 89.98 676 179.75 831.5 0.2 831.5"/><polygon class="b" points="0.8 696.5 90.58 541 180.35 696.5 0.8 696.5"/><polygon class="c" points="0.4 561.5 90.18 406 179.96 561.5 0.4 561.5"/><polygon class="d" points="0 425.5 89.78 270 179.56 425.5 0 425.5"/><polygon class="e" points="0.6 290.5 90.38 135 180.16 290.5 0.6 290.5"/><polygon class="f" points="0.2 155.5 89.98 0 179.75 155.5 0.2 155.5"/></svg>