<svg xmlns="http://www.w3.org/2000/svg" viewBox="0 0 963.07 52.91"><title>front-end-text-black</title><path d="M10.72,52.21H0V.81H29.46V9.74H10.72V23H28.16v8.89H10.72Z"/><path d="M50.41,32.48V52.21H39.52V.81h15Q65,.81,70,4.62t5,11.58a13.64,13.64,0,0,1-2.5,8.07,16.52,16.52,0,0,1-7.07,5.54q11.6,17.33,15.12,22.39H68.48L56.21,32.48Zm0-8.86h3.52q5.17,0,7.63-1.72A6.15,6.15,0,0,0,64,16.49q0-3.66-2.51-5.2T53.72,9.74h-3.3Z"/><path d="M133.7,26.44q0,12.76-6.33,19.62t-18.14,6.86q-11.81,0-18.14-6.86T84.76,26.37q0-12.83,6.35-19.6T109.3,0q11.85,0,18.12,6.82T133.7,26.44Zm-37.51,0q0,8.61,3.27,13t9.77,4.36q13,0,13-17.33t-13-17.37q-6.5,0-9.81,4.38T96.19,26.44Z"/><path d="M189.95,52.21H176.1L153.74,13.32h-.32q.67,10.3.67,14.7V52.21h-9.74V.81H158.1l22.32,38.5h.25q-.53-10-.53-14.17V.81h9.81Z"/><path d="M222.71,52.21h-10.9V9.88h-14V.81h38.81V9.88h-14Z"/><path d="M240.26,37.3V28.51h18.88V37.3Z"/><path d="M297.35,52.21h-29.6V.81h29.6V9.74h-18.7V21h17.4V30h-17.4V43.21h18.7Z"/><path d="M353.67,52.21H339.82L317.46,13.32h-.32q.67,10.3.67,14.7V52.21h-9.74V.81h13.75l22.32,38.5h.25q-.53-10-.53-14.17V.81h9.81Z"/><path d="M409.25,26q0,12.69-7.22,19.44t-20.87,6.75H366.61V.81h16.14q12.59,0,19.55,6.64T409.25,26Zm-11.32.28q0-16.56-14.62-16.56h-5.8V43.21h4.68Q397.93,43.21,397.93,26.3Z"/><path d="M481.25,26q0,12.69-7.22,19.44t-20.87,6.75H438.61V.81h16.14q12.59,0,19.55,6.64T481.25,26Zm-11.32.28q0-16.56-14.62-16.56h-5.8V43.21h4.68Q469.93,43.21,469.93,26.3Z"/><path d="M521.51,52.21h-29.6V.81h29.6V9.74H502.8V21h17.4V30H502.8V43.21h18.7Z"/><path d="M561.55.81h11l-17.47,51.4H543.2L525.76.81h11l9.67,30.59q.81,2.71,1.67,6.31t1.07,5a90.05,90.05,0,0,1,2.64-11.32Z"/><path d="M608.63,52.21H579V.81h29.6V9.74h-18.7V21h17.4V30h-17.4V43.21h18.7Z"/><path d="M619.35,52.21V.81h10.9v42.4h20.85v9Z"/><path d="M706.68,26.44q0,12.76-6.33,19.62t-18.14,6.86q-11.81,0-18.14-6.86t-6.33-19.69q0-12.83,6.35-19.6T682.28,0q11.85,0,18.12,6.82T706.68,26.44Zm-37.51,0q0,8.61,3.27,13t9.77,4.36q13,0,13-17.33t-13-17.37q-6.5,0-9.81,4.38T669.16,26.44Z"/><path d="M752.84,16.84q0,8.3-5.19,12.69T732.9,33.93h-4.68V52.21h-10.9V.81h16.42q9.35,0,14.22,4T752.84,16.84ZM728.23,25h3.59q5,0,7.52-2a7,7,0,0,0,2.5-5.78q0-3.83-2.09-5.66t-6.56-1.83h-5Z"/><path d="M784.3,52.21,771.93,11.88h-.32q.67,12.3.67,16.42V52.21h-9.74V.81h14.84l12.16,39.3h.21L802.65.81h14.84v51.4H807.33V27.88q0-1.72.05-4t.47-12h-.32L794.29,52.21Z"/><path d="M860,52.21h-29.6V.81H860V9.74h-18.7V21h17.4V30h-17.4V43.21H860Z"/><path d="M916.35,52.21H902.5L880.14,13.32h-.32q.67,10.3.67,14.7V52.21h-9.74V.81H884.5l22.32,38.5h.25q-.53-10-.53-14.17V.81h9.81Z"/><path d="M949.11,52.21h-10.9V9.88h-14V.81h38.81V9.88h-14Z"/></svg>