<svg xmlns="http://www.w3.org/2000/svg" viewBox="0 0 226.4 13.41" preserveAspectRatio="none"><path d="M99.67,13.38a26.24,26.24,0,0,1-6.25-.78,28.23,28.23,0,0,1-9.51-4.17C71.44-.65,59,8,58.46,8.43a24.77,24.77,0,0,1-21,4.17A28.23,28.23,0,0,1,28,8.43C15.46-.69,2.65,8.3,2.52,8.39L0,4.87A29.2,29.2,0,0,1,9.51.74,24.79,24.79,0,0,1,30.49,5c.52.35,13,9.08,25.41,0A29.26,29.26,0,0,1,65.45.79,24.74,24.74,0,0,1,86.47,5c.52.35,13,9.08,25.41,0A29.26,29.26,0,0,1,121.43.79a24.74,24.74,0,0,1,21,4.17c.52.35,13,9.08,25.41,0A29.26,29.26,0,0,1,177.41.79a24.74,24.74,0,0,1,21,4.17c.52.35,13,9.08,25.41,0l2.56,3.52a24.72,24.72,0,0,1-21,4.17,28.73,28.73,0,0,1-9.6-4.21c-12.51-9.12-25.32-.09-25.45,0a24.62,24.62,0,0,1-21,4.17,28.23,28.23,0,0,1-9.51-4.17c-12.46-9.08-24.93-.39-25.45,0A24.73,24.73,0,0,1,99.67,13.38Z" /></svg>
