<svg xmlns="http://www.w3.org/2000/svg" viewBox="0 0 360.56 304.34"><title>about-graphic</title><path d="M124.39 300.23A108.6 108.6 0 1 1 233 191.62a108.73 108.73 0 0 1-108.61 108.61zm0-212.21A103.6 103.6 0 1 0 228 191.62 103.72 103.72 0 0 0 124.39 88z"/><path d="M275.07 247c1.18-3.34-.34-5.93-3.39-5.79s-6.44 2.95-7.57 6.27.39 5.91 3.39 5.79 6.4-2.93 7.57-6.27zm17.04-48.38c1.18-3.34-.49-5.86-3.71-5.63s-6.76 3.11-7.89 6.42.53 5.84 3.71 5.63 6.71-3.04 7.89-6.42zm17.03-48.38c1.18-3.34-.63-5.79-4-5.47a10.52 10.52 0 0 0-8.21 6.58c-1.13 3.32.68 5.77 4 5.47a10.57 10.57 0 0 0 8.21-6.58zm17.04-48.38c1.18-3.34-.77-5.72-4.36-5.32a11.07 11.07 0 0 0-8.54 6.74c-1.13 3.32.82 5.7 4.36 5.32a11.13 11.13 0 0 0 8.54-6.74zm17.04-48.39c1.18-3.34-.92-5.65-4.68-5.16s-7.73 3.58-8.86 6.9 1 5.63 4.68 5.16 7.64-3.56 8.86-6.9zm17.03-48.38c1.18-3.34-1.06-5.58-5-5s-8 3.74-9.18 7.06 1.11 5.56 5 5 8.01-3.72 9.18-7.06zM216.75 296c1-3.25-.52-5.85-3.39-5.79s-6 2.72-6.93 5.95.57 5.84 3.39 5.84 5.93-2.73 6.93-6zm14.47-47.1c1-3.25-.66-5.77-3.71-5.63s-6.3 2.88-7.25 6.11.74 5.75 3.74 5.62 6.22-2.84 7.22-6.1zm14.46-47.12c1-3.25-.81-5.7-4-5.47a9.26 9.26 0 0 0-7.57 6.27c-1 3.23.85 5.68 4 5.47a9.31 9.31 0 0 0 7.57-6.27zm14.46-47.11c1-3.25-1-5.63-4.36-5.32a9.78 9.78 0 0 0-7.89 6.42c-1 3.23 1 5.61 4.36 5.32a9.83 9.83 0 0 0 7.89-6.42zm14.47-47.12c1-3.25-1.1-5.56-4.68-5.16s-7.26 3.35-8.21 6.58 1.14 5.54 4.68 5.16a10.36 10.36 0 0 0 8.21-6.58zm14.46-47.12c1-3.25-1.24-5.49-5-5s-7.58 3.51-8.54 6.74 1.28 5.47 5 5 7.54-3.48 8.54-6.74zm14.47-47.11c1-3.25-1.38-5.42-5.32-4.84s-7.9 3.67-8.86 6.9 1.43 5.4 5.32 4.84 7.86-3.65 8.86-6.9zM175.47 296.65c.82-3.17-.84-5.69-3.71-5.63s-5.83 2.65-6.61 5.79.89 5.67 3.71 5.63 5.78-2.62 6.61-5.79zm11.89-45.85c.82-3.17-1-5.62-4-5.47a8.1 8.1 0 0 0-6.93 5.95c-.78 3.14 1 5.59 4 5.47s6.11-2.75 6.93-5.95zm11.89-45.85c.82-3.17-1.13-5.55-4.36-5.32a8.58 8.58 0 0 0-7.25 6.11c-.78 3.14 1.17 5.52 4.36 5.32a8.62 8.62 0 0 0 7.25-6.11zm11.89-45.85c.82-3.17-1.27-5.47-4.68-5.16a9.07 9.07 0 0 0-7.57 6.27c-.78 3.14 1.32 5.45 4.68 5.16a9.12 9.12 0 0 0 7.57-6.27zM223 113.24c.82-3.17-1.42-5.4-5-5s-7.12 3.28-7.89 6.42 1.46 5.38 5 5 7.11-3.25 7.89-6.42zm11.93-45.85c.82-3.17-1.56-5.33-5.32-4.84s-7.44 3.44-8.21 6.58 1.6 5.31 5.32 4.87 7.39-3.44 8.21-6.61zm11.89-45.85c.82-3.17-1.71-5.26-5.64-4.68s-7.76 3.6-8.54 6.74 1.75 5.24 5.64 4.68 7.72-3.57 8.54-6.74zM134.18 297.29c.64-3.08-1.16-5.53-4-5.47a7 7 0 0 0-6.29 5.63c-.6 3.06 1.21 5.51 4 5.47s5.65-2.56 6.29-5.63zm9.32-44.59c.64-3.08-1.31-5.46-4.36-5.32a7.47 7.47 0 0 0-6.61 5.79c-.6 3.06 1.35 5.44 4.36 5.32a7.51 7.51 0 0 0 6.61-5.79zm9.32-44.59c.64-3.08-1.45-5.39-4.68-5.16a7.93 7.93 0 0 0-6.93 5.95c-.6 3.06 1.5 5.37 4.68 5.16a8 8 0 0 0 6.93-5.95zm9.32-44.59c.64-3.08-1.6-5.32-5-5s-6.65 3.05-7.25 6.11 1.64 5.29 5 5a8.45 8.45 0 0 0 7.25-6.11zm9.33-44.58c.64-3.08-1.74-5.25-5.32-4.84s-7 3.21-7.57 6.27 1.78 5.22 5.32 4.84 6.92-3.21 7.57-6.27zm9.32-44.59c.64-3.08-1.88-5.18-5.64-4.68s-7.29 3.37-7.89 6.42 1.93 5.15 5.64 4.68 7.24-3.34 7.89-6.42zm9.32-44.59c.64-3.08-2-5.1-6-4.53s-7.62 3.53-8.21 6.58 2.07 5.08 6 4.53 7.57-3.5 8.21-6.58zM92.89 297.92c.47-3-1.48-5.37-4.36-5.32a6.46 6.46 0 0 0-6 5.47 4.39 4.39 0 0 0 4.36 5.32 6.49 6.49 0 0 0 6-5.47zm6.75-43.32a4.32 4.32 0 0 0-4.64-5.16 6.88 6.88 0 0 0-6.29 5.63 4.37 4.37 0 0 0 4.68 5.16 6.91 6.91 0 0 0 6.25-5.63zm6.75-43.33c.47-3-1.77-5.23-5-5a7.31 7.31 0 0 0-6.61 5.79c-.42 3 1.82 5.21 5 5a7.35 7.35 0 0 0 6.61-5.79zm6.75-43.27c.47-3-1.92-5.16-5.32-4.84s-6.51 3-6.93 5.95 2 5.14 5.32 4.84 6.47-3.01 6.93-5.95zm6.75-43.37c.47-3-2.06-5.09-5.64-4.68s-6.83 3.14-7.25 6.11 2.1 5.07 5.64 4.68 6.79-3.12 7.25-6.11zm6.75-43.32c.47-3-2.2-5-6-4.53s-7.15 3.3-7.57 6.27 2.25 5 6 4.53 7.11-3.28 7.57-6.27zM133.39 38c.47-3-2.35-4.95-6.29-4.37s-7.47 3.45-7.89 6.42 2.39 4.92 6.29 4.37 7.43-3.42 7.89-6.42zM51.61 298.55a4.55 4.55 0 0 0-4.68-5.16 5.91 5.91 0 0 0-5.64 5.32 4.61 4.61 0 0 0 4.71 5.16 6 6 0 0 0 5.61-5.32zm4.18-42.06a4.54 4.54 0 0 0-5-5 6.31 6.31 0 0 0-6 5.47 4.6 4.6 0 0 0 5 5 6.35 6.35 0 0 0 6-5.47zM60 214.44c.29-2.9-2.09-5.07-5.32-4.84s-6 2.75-6.29 5.63 2.14 5 5.32 4.84a6.76 6.76 0 0 0 6.29-5.63zm4.14-42.06c.29-2.9-2.24-5-5.64-4.68s-6.36 2.91-6.61 5.79 2.28 5 5.64 4.68 6.33-2.88 6.61-5.79zm4.18-42.05c.29-2.9-2.38-4.93-6-4.53s-6.68 3.07-6.93 5.95 2.43 4.91 6 4.53 6.61-3.05 6.93-5.95zm4.18-42.06c.29-2.9-2.53-4.86-6.29-4.37s-7 3.23-7.21 6.1 2.57 4.84 6.29 4.37 6.92-3.2 7.21-6.1zm4.18-42.06C77 43.31 74 41.43 70.07 42s-7.33 3.38-7.57 6.27 2.71 4.77 6.61 4.21 7.28-3.36 7.57-6.27zM10.32 299.18a4.8 4.8 0 0 0-5-5A5.41 5.41 0 0 0 0 299.34a4.88 4.88 0 0 0 5 5 5.44 5.44 0 0 0 5.32-5.16zm1.61-40.79a4.8 4.8 0 0 0-5.32-4.84A5.78 5.78 0 0 0 1 258.87a4.87 4.87 0 0 0 5.32 4.84 5.81 5.81 0 0 0 5.61-5.32zm1.61-40.79c.11-2.82-2.42-4.91-5.64-4.68s-5.9 2.68-6 5.47 2.46 4.89 5.64 4.68 5.89-2.65 6-5.47zm1.6-40.79c.11-2.82-2.56-4.84-6-4.53s-6.14 2.84-6.25 5.64 2.6 4.82 6 4.53 6.11-2.82 6.25-5.64zM16.75 136c.11-2.82-2.7-4.77-6.29-4.37s-6.54 3-6.61 5.79 2.75 4.75 6.29 4.37 6.5-2.95 6.61-5.79zm1.61-40.77c.11-2.82-2.85-4.7-6.61-4.21S4.89 94.17 4.82 97s2.89 4.68 6.61 4.21 6.82-3.21 6.93-5.98zM20 54.44c.11-2.82-3-4.63-6.93-4.05s-7.22 3.31-7.28 6.1 3 4.61 6.93 4.05 7.13-3.29 7.28-6.1z" fill="#00f"/></svg>