<svg xmlns="http://www.w3.org/2000/svg" xmlns:xlink="http://www.w3.org/1999/xlink" viewBox="0 0 1077.55 233"><defs><style>.a{fill:url(#a)}.b{fill:url(#b)}.c{fill:url(#c)}.d{fill:url(#d)}.e{fill:url(#e)}.f{fill:url(#f)}</style><linearGradient id="a" x1="926.46" y1="106.46" x2="1049.1" y2="-16.18" gradientTransform="matrix(1 0 0 -1 -539.2 155.5)" gradientUnits="userSpaceOnUse"><stop offset="0" stop-color="#fff"/><stop offset=".09" stop-color="#f8f8ff"/><stop offset=".22" stop-color="#e3e3ff"/><stop offset=".38" stop-color="#c1c1ff"/><stop offset=".56" stop-color="#9292ff"/><stop offset=".75" stop-color="#55f"/><stop offset=".97" stop-color="#0d0dff"/><stop offset="1" stop-color="#00f"/></linearGradient><linearGradient id="b" x1="709.88" y1="22.96" x2="885.04" y2="-4.78" xlink:href="#a"/><linearGradient id="c" x1="579.9" y1="-1.88" x2="722.45" y2="70.75" xlink:href="#a"/><linearGradient id="d" x1="386.68" y1="32.05" x2="468.08" y2="191.81" gradientTransform="matrix(-1 0 0 1 1077.55 0)" xlink:href="#a"/><linearGradient id="e" x1="294.2" y1="3.81" x2="267.98" y2="169.37" gradientTransform="matrix(-1 0 0 1 1077.55 0)" xlink:href="#a"/><linearGradient id="f" x1="151.1" y1="61.32" x2="28.46" y2="183.96" gradientTransform="matrix(-1 0 0 1 1077.55 0)" xlink:href="#a"/></defs><title>contact-graphic-horizontal</title><path class="a" d="M358.8 77.5L448.58 233l89.78-155.5H358.8z"/><path class="b" d="M179.4 77.5L269.18 233l89.77-155.5H179.4z"/><path class="c" d="M0 77.5L89.78 233l89.78-155.5H0z"/><path class="d" d="M717.75 155.5L627.98 0 538.2 155.5h179.55z"/><path class="e" d="M897.15 155.5L807.38 0 717.6 155.5h179.55z"/><path class="f" d="M1077.56 155.5L987.78 0 898 155.5h179.56z"/></svg>