<svg xmlns="http://www.w3.org/2000/svg" xmlns:xlink="http://www.w3.org/1999/xlink" viewBox="0 0 1077.55 233"><defs><style>.a{fill:url(#a)}.b{fill:url(#b)}.c{fill:url(#c)}.d{fill:url(#d)}.e{fill:url(#e)}.f{fill:url(#f)}</style><linearGradient id="a" x1="926.46" y1="183.96" x2="1049.1" y2="61.32" gradientTransform="translate(-539.2)" gradientUnits="userSpaceOnUse"><stop offset="0" stop-color="#fff"/><stop offset=".09" stop-color="#f8f8ff"/><stop offset=".22" stop-color="#e3e3ff"/><stop offset=".38" stop-color="#c1c1ff"/><stop offset=".56" stop-color="#9292ff"/><stop offset=".75" stop-color="#55f"/><stop offset=".97" stop-color="#0d0dff"/><stop offset="1" stop-color="#00f"/></linearGradient><linearGradient id="b" x1="709.88" y1="100.46" x2="885.04" y2="72.72" xlink:href="#a"/><linearGradient id="c" x1="579.9" y1="75.62" x2="722.45" y2="148.25" xlink:href="#a"/><linearGradient id="d" x1="386.68" y1="108.55" x2="468.08" y2="268.32" gradientTransform="rotate(180 538.775 154.75)" xlink:href="#a"/><linearGradient id="e" x1="294.2" y1="80.31" x2="267.98" y2="245.87" gradientTransform="rotate(180 538.775 154.75)" xlink:href="#a"/><linearGradient id="f" x1="151.1" y1="137.82" x2="28.46" y2="260.46" gradientTransform="rotate(180 538.775 154.75)" xlink:href="#a"/></defs><title>contact-graphic-horizontal-2</title><path class="a" d="M358.8 155.5L448.58 0l89.78 155.5H358.8z"/><path class="b" d="M179.4 155.5L269.18 0l89.77 155.5H179.4z"/><path class="c" d="M0 155.5L89.78 0l89.78 155.5H0z"/><path class="d" d="M717.75 77.5L627.98 233 538.2 77.5h179.55z"/><path class="e" d="M897.15 77.5L807.38 233 717.6 77.5h179.55z"/><path class="f" d="M1077.56 77.5L987.78 233 898 77.5h179.56z"/></svg>