<svg xmlns="http://www.w3.org/2000/svg" xmlns:xlink="http://www.w3.org/1999/xlink" viewBox="0 0 180.35 831.5"><defs><style>.a{fill:url(#a)}.b{fill:url(#b)}.c{fill:url(#c)}.d{fill:url(#d)}.e{fill:url(#e)}.f{fill:url(#f)}</style><linearGradient id="a" x1="28.66" y1="859.96" x2="151.3" y2="737.32" gradientUnits="userSpaceOnUse"><stop offset="0" stop-color="#fff"/><stop offset=".09" stop-color="#f8f8ff"/><stop offset=".22" stop-color="#e3e3ff"/><stop offset=".38" stop-color="#c1c1ff"/><stop offset=".56" stop-color="#9292ff"/><stop offset=".75" stop-color="#55f"/><stop offset=".97" stop-color="#0d0dff"/><stop offset="1" stop-color="#00f"/></linearGradient><linearGradient id="b" x1="-7.92" y1="641.46" x2="167.24" y2="613.72" xlink:href="#a"/><linearGradient id="c" x1="41.1" y1="481.62" x2="183.65" y2="554.25" xlink:href="#a"/><linearGradient id="d" x1="26.88" y1="302.05" x2="108.28" y2="461.81" xlink:href="#a"/><linearGradient id="e" x1="114.4" y1="138.81" x2="88.18" y2="304.37" xlink:href="#a"/><linearGradient id="f" x1="151.3" y1="61.32" x2="28.66" y2="183.96" xlink:href="#a"/></defs><title>contact-graphic-stacked</title><path class="a" d="M.2 831.5L89.98 676l89.77 155.5H.2z"/><path class="b" d="M.8 696.5L90.58 541l89.77 155.5H.8z"/><path class="c" d="M.4 561.5L90.18 406l89.78 155.5H.4z"/><path class="d" d="M0 425.5L89.78 270l89.78 155.5H0z"/><path class="e" d="M.6 290.5L90.38 135l89.78 155.5H.6z"/><path class="f" d="M.2 155.5L89.98 0l89.77 155.5H.2z"/></svg>