<svg xmlns="http://www.w3.org/2000/svg" xmlns:xlink="http://www.w3.org/1999/xlink" viewBox="0 0 1086.55 681.5"><defs><linearGradient id="a" x1="935.46" y1="709.96" x2="1058.1" y2="587.32" gradientUnits="userSpaceOnUse"><stop offset="0" stop-color="#fff"/><stop offset=".09" stop-color="#f8f8ff"/><stop offset=".22" stop-color="#e3e3ff"/><stop offset=".38" stop-color="#c1c1ff"/><stop offset=".56" stop-color="#9292ff"/><stop offset=".75" stop-color="#55f"/><stop offset=".97" stop-color="#0d0dff"/><stop offset="1" stop-color="#00f"/></linearGradient><linearGradient id="b" x1="716.88" y1="521.46" x2="892.04" y2="493.72" xlink:href="#a"/><linearGradient id="c" x1="584.9" y1="391.62" x2="727.45" y2="464.25" xlink:href="#a"/><linearGradient id="d" x1="389.68" y1="242.05" x2="471.08" y2="401.81" xlink:href="#a"/><linearGradient id="e" x1="295.2" y1="108.81" x2="268.98" y2="274.37" xlink:href="#a"/><linearGradient id="f" x1="151.1" y1="61.32" x2="28.46" y2="183.96" xlink:href="#a"/></defs><title>contact-graphic</title><path fill="url(#a)" d="M907 681.5L996.78 526l89.78 155.5H907z"/><path fill="url(#b)" d="M725.6 576.5L815.38 421l89.77 155.5H725.6z"/><path fill="url(#c)" d="M544.2 471.5L633.98 316l89.77 155.5H544.2z"/><path fill="url(#d)" d="M362.8 365.5L452.58 210l89.78 155.5H362.8z"/><path fill="url(#e)" d="M181.4 260.5L271.18 105l89.77 155.5H181.4z"/><path fill="url(#f)" d="M0 155.5L89.78 0l89.78 155.5H0z"/></svg>