<svg xmlns="http://www.w3.org/2000/svg" viewBox="0 0 171.5 73"><title>eightnine-logo</title><path fill="#fff" stroke="#111" stroke-miterlimit="10" stroke-width="3" d="M1.5 1.5H170v70H1.5z"/><path d="M96.31 24.29L87.47 48.7h-3l8.85-24.41z" fill="#111"/><path d="M96.31 24.29L87.47 48.7h-3l8.85-24.41zM41.62 39.35h-8.09c0 .3-.11.59-.11.89a2 2 0 0 0 2.27 2.07A4.9 4.9 0 0 0 38.92 41l1.73 2a8.06 8.06 0 0 1-5.29 1.77c-2.37 0-5-1.08-5-4.33 0-4.13 2.27-8.27 6.9-8.27 2.91 0 4.75 1.77 4.75 4.43a14.18 14.18 0 0 1-.39 2.75zm-4.53-4.82c-1.4 0-2.48.79-3.13 2.85h5a2.24 2.24 0 0 0 .11-.79 2 2 0 0 0-1.98-2.07zm9.6 10.03h-3.24l2.7-12.3h3.24zm3.13-14.27h-3.24l.54-2.46h3.34zm10.57 13.88a6.13 6.13 0 0 1-6.47 5.12 5.53 5.53 0 0 1-4.42-1.67l2.27-1.77a2.92 2.92 0 0 0 2.27 1 3.09 3.09 0 0 0 3.24-2.66l.32-1.28a3.68 3.68 0 0 1-3 1.28 3.48 3.48 0 0 1-3.78-3.44 12.46 12.46 0 0 1 .32-2.46c.43-2.36 1-3.74 2-4.72a5.06 5.06 0 0 1 3.45-1.18 3.35 3.35 0 0 1 3 1.38l.22-1.28H63zm-3.24-9.35c-1.62 0-2.37 1.18-2.8 3.35a16.22 16.22 0 0 0-.22 1.67 1.5 1.5 0 0 0 1.62 1.67c1.62 0 2.37-1.18 2.8-3.35a16.22 16.22 0 0 0 .22-1.67 1.47 1.47 0 0 0-1.62-1.67zm19.1 2.07l-1.73 7.68h-3.24l1.62-7.48c0-.3.11-.59.11-.79a1.49 1.49 0 0 0-1.62-1.57 2.78 2.78 0 0 0-2.8 2.36L67 44.56h-3.27l3.67-16.83h3.24l-1.19 5.51a5.15 5.15 0 0 1 3.34-1.08 3.36 3.36 0 0 1 3.56 3.44c.01.5-.1.89-.1 1.29zM82.5 42a.58.58 0 0 1-.32-.59 1 1 0 0 1 .11-.49l1.29-6h1.51l.91-2.27h-2l.77-3.65h-3.24l-.76 3.64h-1.4l-.54 2.26h1.4l-1.29 6c0 .3-.11.59-.11 1a2.71 2.71 0 0 0 2.7 2.66zm28.05 2.56h-3.24l2.7-12.3h3.24zm3.13-14.27h-3.24l.54-2.46h3.24zm12.84 6.6l-1.73 7.68h-3.24l1.62-7.48c0-.3.11-.59.11-.79a1.49 1.49 0 0 0-1.62-1.57 2.78 2.78 0 0 0-2.8 2.36l-1.62 7.48H114l2.7-12.3h3.13l-.22 1.18a5.33 5.33 0 0 1 3.56-1.28 3.27 3.27 0 0 1 3.45 3.44c.01.49-.1.88-.1 1.28zm13.38 2.46h-8.09c0 .3-.11.59-.11.89a2 2 0 0 0 2.3 2.06 4.9 4.9 0 0 0 3.2-1.3l1.73 2a8.06 8.06 0 0 1-5.29 1.77c-2.37 0-5-1.08-5-4.33 0-4.13 2.27-8.27 6.9-8.27 2.91 0 4.75 1.77 4.75 4.43a9 9 0 0 1-.39 2.75zm-4.53-4.82c-1.4 0-2.48.79-3.13 2.85h5a2.24 2.24 0 0 0 .11-.79 1.87 1.87 0 0 0-1.98-2.07zm-33.02-2.37a5.33 5.33 0 0 0-3.56 1.28l.21-1.18h-1.4l-4.42 12-.11.3h3.24l1.62-7.48a2.71 2.71 0 0 1 2.8-2.36 1.54 1.54 0 0 1 1.62 1.57 2 2 0 0 1-.11.79l-1.62 7.48h3.24l1.73-7.68a5.34 5.34 0 0 0 .22-1.38 3.31 3.31 0 0 0-3.46-3.34z" fill="#111"/></svg>