<svg xmlns="http://www.w3.org/2000/svg" viewBox="0 0 963.07 52.91"><title>front-end-text-black</title><path d="M10.72 52.21H0V.81h29.46v8.93H10.72V23h17.44v8.89H10.72zm39.69-19.73v19.73H39.52V.81h15Q65 .81 70 4.62t5 11.58a13.64 13.64 0 0 1-2.5 8.07 16.52 16.52 0 0 1-7.07 5.54q11.6 17.33 15.12 22.39H68.48L56.21 32.48zm0-8.86h3.52q5.17 0 7.63-1.72A6.15 6.15 0 0 0 64 16.49q0-3.66-2.51-5.2t-7.77-1.55h-3.3zm83.29 2.82q0 12.76-6.33 19.62t-18.14 6.86q-11.81 0-18.14-6.86t-6.33-19.69q0-12.83 6.35-19.6T109.3 0q11.85 0 18.12 6.82t6.28 19.62zm-37.51 0q0 8.61 3.27 13t9.77 4.36q13 0 13-17.33t-13-17.37q-6.5 0-9.81 4.38t-3.23 12.96zm93.76 25.77H176.1l-22.36-38.89h-.32q.67 10.3.67 14.7v24.19h-9.74V.81h13.75l22.32 38.5h.25q-.53-10-.53-14.17V.81h9.81zm32.76 0h-10.9V9.88h-14V.81h38.81v9.07h-14zm17.55-14.91v-8.79h18.88v8.79zm57.09 14.91h-29.6V.81h29.6v8.93h-18.7V21h17.4v9h-17.4v13.21h18.7zm56.32 0h-13.85l-22.36-38.89h-.32q.67 10.3.67 14.7v24.19h-9.74V.81h13.75l22.32 38.5h.25q-.53-10-.53-14.17V.81h9.81zM409.25 26q0 12.69-7.22 19.44t-20.87 6.75h-14.55V.81h16.14q12.59 0 19.55 6.64T409.25 26zm-11.32.28q0-16.56-14.62-16.56h-5.8v33.49h4.68q15.74 0 15.74-16.91zm83.32-.28q0 12.69-7.22 19.44t-20.87 6.75h-14.55V.81h16.14q12.59 0 19.55 6.64T481.25 26zm-11.32.28q0-16.56-14.62-16.56h-5.8v33.49h4.68q15.74 0 15.74-16.91zm51.58 25.93h-29.6V.81h29.6v8.93H502.8V21h17.4v9h-17.4v13.21h18.7zM561.55.81h11l-17.47 51.4H543.2L525.76.81h11l9.67 30.59q.81 2.71 1.67 6.31t1.07 5a90.05 90.05 0 0 1 2.64-11.32zm47.08 51.4H579V.81h29.6v8.93h-18.7V21h17.4v9h-17.4v13.21h18.7zm10.72 0V.81h10.9v42.4h20.85v9zm87.33-25.77q0 12.76-6.33 19.62t-18.14 6.86q-11.81 0-18.14-6.86t-6.33-19.69q0-12.83 6.35-19.6T682.28 0q11.85 0 18.12 6.82t6.28 19.62zm-37.51 0q0 8.61 3.27 13t9.77 4.36q13 0 13-17.33t-13-17.37q-6.5 0-9.81 4.38t-3.24 12.96zm83.67-9.6q0 8.3-5.19 12.69t-14.75 4.4h-4.68v18.28h-10.9V.81h16.42q9.35 0 14.22 4t4.88 12.03zM728.23 25h3.59q5 0 7.52-2a7 7 0 0 0 2.5-5.78q0-3.83-2.09-5.66t-6.56-1.83h-5zm56.07 27.21l-12.37-40.33h-.32q.67 12.3.67 16.42v23.91h-9.74V.81h14.84l12.16 39.3h.21l12.9-39.3h14.84v51.4h-10.16V27.88q0-1.72.05-4t.47-12h-.32l-13.24 40.33zm75.7 0h-29.6V.81H860v8.93h-18.7V21h17.4v9h-17.4v13.21H860zm56.35 0H902.5l-22.36-38.89h-.32q.67 10.3.67 14.7v24.19h-9.74V.81h13.75l22.32 38.5h.25q-.53-10-.53-14.17V.81h9.81zm32.76 0h-10.9V9.88h-14V.81h38.81v9.07h-14z"/></svg>