<svg xmlns="http://www.w3.org/2000/svg" viewBox="0 0 145.66 145.66"><title>visual-design-icon</title><path fill="none" stroke="#00f" stroke-miterlimit="10" stroke-width="3" class="diamond" d="M72.83 2.116l70.71 70.711-70.71 70.71-70.71-70.71z"/><path d="M102 60.34l-2.12-2.12-4.4 4.4L83.91 51l-1.15-1.15 4.4-4.4-2.16-2.1-6.52 6.52 2.3 2.29c-1.73 1.65-7 5.2-20.09 5.32h-1.08L47.76 98l40.6-11.76v-1.11c.11-13.18 3.73-18.35 5.38-20l1.76 1.76zM85.39 84l-30.14 8.71L69 78.93a5.56 5.56 0 1 0-2.12-2.12L53 90.7l8.84-30.24c13.13-.31 18.85-4 21.07-6.18L91.63 63c-2.18 2.19-5.93 7.87-6.24 21zM69.2 74.15a2.5 2.5 0 1 1 1.57 2.32l-1.38-1.38a2.5 2.5 0 0 1-.19-.94z"/></svg>