<svg xmlns="http://www.w3.org/2000/svg" viewBox="0 0 360.56 304.34"><title>about-graphic</title><path d="M124.39,300.23A108.6,108.6,0,1,1,233,191.62,108.73,108.73,0,0,1,124.39,300.23Zm0-212.21A103.6,103.6,0,1,0,228,191.62,103.72,103.72,0,0,0,124.39,88Z"/><path d="M275.07,247c1.18-3.34-.34-5.93-3.39-5.79s-6.44,2.95-7.57,6.27.39,5.91,3.39,5.79S273.9,250.34,275.07,247Z" style="fill:blue"/><path d="M292.11,198.62c1.18-3.34-.49-5.86-3.71-5.63s-6.76,3.11-7.89,6.42.53,5.84,3.71,5.63S290.93,202,292.11,198.62Z" style="fill:blue"/><path d="M309.14,150.24c1.18-3.34-.63-5.79-4-5.47a10.52,10.52,0,0,0-8.21,6.58c-1.13,3.32.68,5.77,4,5.47A10.57,10.57,0,0,0,309.14,150.24Z" style="fill:blue"/><path d="M326.18,101.86c1.18-3.34-.77-5.72-4.36-5.32a11.07,11.07,0,0,0-8.54,6.74c-1.13,3.32.82,5.7,4.36,5.32A11.13,11.13,0,0,0,326.18,101.86Z" style="fill:blue"/><path d="M343.22,53.47c1.18-3.34-.92-5.65-4.68-5.16s-7.73,3.58-8.86,6.9,1,5.63,4.68,5.16S342,56.81,343.22,53.47Z" style="fill:blue"/><path d="M360.25,5.09c1.18-3.34-1.06-5.58-5-5s-8,3.74-9.18,7.06,1.11,5.56,5,5S359.08,8.43,360.25,5.09Z" style="fill:blue"/><path d="M216.75,296c1-3.25-.52-5.85-3.39-5.79s-6,2.72-6.93,5.95S207,302,209.82,302,215.75,299.27,216.75,296Z" style="fill:blue"/><path d="M231.22,248.9c1-3.25-.66-5.77-3.71-5.63s-6.3,2.88-7.25,6.11S221,255.13,224,255,230.22,252.16,231.22,248.9Z" style="fill:blue"/><path d="M245.68,201.78c1-3.25-.81-5.7-4-5.47a9.26,9.26,0,0,0-7.57,6.27c-1,3.23.85,5.68,4,5.47A9.31,9.31,0,0,0,245.68,201.78Z" style="fill:blue"/><path d="M260.14,154.67c1-3.25-1-5.63-4.36-5.32a9.78,9.78,0,0,0-7.89,6.42c-1,3.23,1,5.61,4.36,5.32A9.83,9.83,0,0,0,260.14,154.67Z" style="fill:blue"/><path d="M274.61,107.55c1-3.25-1.1-5.56-4.68-5.16s-7.26,3.35-8.21,6.58,1.14,5.54,4.68,5.16A10.36,10.36,0,0,0,274.61,107.55Z" style="fill:blue"/><path d="M289.07,60.43c1-3.25-1.24-5.49-5-5s-7.58,3.51-8.54,6.74,1.28,5.47,5,5S288.07,63.69,289.07,60.43Z" style="fill:blue"/><path d="M303.54,13.32c1-3.25-1.38-5.42-5.32-4.84s-7.9,3.67-8.86,6.9,1.43,5.4,5.32,4.84S302.54,16.57,303.54,13.32Z" style="fill:blue"/><path d="M175.47,296.65c.82-3.17-.84-5.69-3.71-5.63s-5.83,2.65-6.61,5.79.89,5.67,3.71,5.63S174.64,299.82,175.47,296.65Z" style="fill:blue"/><path d="M187.36,250.8c.82-3.17-1-5.62-4-5.47a8.1,8.1,0,0,0-6.93,5.95c-.78,3.14,1,5.59,4,5.47S186.54,254,187.36,250.8Z" style="fill:blue"/><path d="M199.25,204.95c.82-3.17-1.13-5.55-4.36-5.32a8.58,8.58,0,0,0-7.25,6.11c-.78,3.14,1.17,5.52,4.36,5.32A8.62,8.62,0,0,0,199.25,204.95Z" style="fill:blue"/><path d="M211.14,159.1c.82-3.17-1.27-5.47-4.68-5.16a9.07,9.07,0,0,0-7.57,6.27c-.78,3.14,1.32,5.45,4.68,5.16A9.12,9.12,0,0,0,211.14,159.1Z" style="fill:blue"/><path d="M223,113.24c.82-3.17-1.42-5.4-5-5s-7.12,3.28-7.89,6.42,1.46,5.38,5,5S222.22,116.41,223,113.24Z" style="fill:blue"/><path d="M234.93,67.39c.82-3.17-1.56-5.33-5.32-4.84s-7.44,3.44-8.21,6.58S223,74.44,226.72,74,234.11,70.56,234.93,67.39Z" style="fill:blue"/><path d="M246.82,21.54c.82-3.17-1.71-5.26-5.64-4.68s-7.76,3.6-8.54,6.74,1.75,5.24,5.64,4.68S246,24.71,246.82,21.54Z" style="fill:blue"/><path d="M134.18,297.29c.64-3.08-1.16-5.53-4-5.47a7,7,0,0,0-6.29,5.63c-.6,3.06,1.21,5.51,4,5.47S133.54,300.36,134.18,297.29Z" style="fill:blue"/><path d="M143.5,252.7c.64-3.08-1.31-5.46-4.36-5.32a7.47,7.47,0,0,0-6.61,5.79c-.6,3.06,1.35,5.44,4.36,5.32A7.51,7.51,0,0,0,143.5,252.7Z" style="fill:blue"/><path d="M152.82,208.11c.64-3.08-1.45-5.39-4.68-5.16a7.93,7.93,0,0,0-6.93,5.95c-.6,3.06,1.5,5.37,4.68,5.16A8,8,0,0,0,152.82,208.11Z" style="fill:blue"/><path d="M162.14,163.52c.64-3.08-1.6-5.32-5-5s-6.65,3.05-7.25,6.11,1.64,5.29,5,5A8.45,8.45,0,0,0,162.14,163.52Z" style="fill:blue"/><path d="M171.47,118.94c.64-3.08-1.74-5.25-5.32-4.84s-7,3.21-7.57,6.27,1.78,5.22,5.32,4.84S170.82,122,171.47,118.94Z" style="fill:blue"/><path d="M180.79,74.35c.64-3.08-1.88-5.18-5.64-4.68s-7.29,3.37-7.89,6.42,1.93,5.15,5.64,4.68S180.14,77.43,180.79,74.35Z" style="fill:blue"/><path d="M190.11,29.76c.64-3.08-2-5.1-6-4.53s-7.62,3.53-8.21,6.58,2.07,5.08,6,4.53S189.47,32.84,190.11,29.76Z" style="fill:blue"/><path d="M92.89,297.92c.47-3-1.48-5.37-4.36-5.32a6.46,6.46,0,0,0-6,5.47,4.39,4.39,0,0,0,4.36,5.32A6.49,6.49,0,0,0,92.89,297.92Z" style="fill:blue"/><path d="M99.64,254.6A4.32,4.32,0,0,0,95,249.44a6.88,6.88,0,0,0-6.29,5.63,4.37,4.37,0,0,0,4.68,5.16A6.91,6.91,0,0,0,99.64,254.6Z" style="fill:blue"/><path d="M106.39,211.27c.47-3-1.77-5.23-5-5a7.31,7.31,0,0,0-6.61,5.79c-.42,3,1.82,5.21,5,5A7.35,7.35,0,0,0,106.39,211.27Z" style="fill:blue"/><path d="M113.14,168c.47-3-1.92-5.16-5.32-4.84s-6.51,3-6.93,5.95,2,5.14,5.32,4.84S112.68,170.94,113.14,168Z" style="fill:blue"/><path d="M119.89,124.63c.47-3-2.06-5.09-5.64-4.68s-6.83,3.14-7.25,6.11,2.1,5.07,5.64,4.68S119.43,127.62,119.89,124.63Z" style="fill:blue"/><path d="M126.64,81.31c.47-3-2.2-5-6-4.53s-7.15,3.3-7.57,6.27,2.25,5,6,4.53S126.18,84.3,126.64,81.31Z" style="fill:blue"/><path d="M133.39,38c.47-3-2.35-4.95-6.29-4.37s-7.47,3.45-7.89,6.42,2.39,4.92,6.29,4.37S132.93,41,133.39,38Z" style="fill:blue"/><path d="M51.61,298.55a4.55,4.55,0,0,0-4.68-5.16,5.91,5.91,0,0,0-5.64,5.32A4.61,4.61,0,0,0,46,303.87,6,6,0,0,0,51.61,298.55Z" style="fill:blue"/><path d="M55.79,256.49a4.54,4.54,0,0,0-5-5,6.31,6.31,0,0,0-6,5.47,4.6,4.6,0,0,0,5,5A6.35,6.35,0,0,0,55.79,256.49Z" style="fill:blue"/><path d="M60,214.44c.29-2.9-2.09-5.07-5.32-4.84s-6,2.75-6.29,5.63,2.14,5,5.32,4.84A6.76,6.76,0,0,0,60,214.44Z" style="fill:blue"/><path d="M64.14,172.38c.29-2.9-2.24-5-5.64-4.68s-6.36,2.91-6.61,5.79,2.28,5,5.64,4.68S63.86,175.29,64.14,172.38Z" style="fill:blue"/><path d="M68.32,130.33c.29-2.9-2.38-4.93-6-4.53s-6.68,3.07-6.93,5.95,2.43,4.91,6,4.53S68,133.23,68.32,130.33Z" style="fill:blue"/><path d="M72.5,88.27c.29-2.9-2.53-4.86-6.29-4.37S59.21,87.13,59,90s2.57,4.84,6.29,4.37S72.21,91.17,72.5,88.27Z" style="fill:blue"/><path d="M76.68,46.21C77,43.31,74,41.43,70.07,42s-7.33,3.38-7.57,6.27,2.71,4.77,6.61,4.21S76.39,49.12,76.68,46.21Z" style="fill:blue"/><path d="M10.32,299.18a4.8,4.8,0,0,0-5-5A5.41,5.41,0,0,0,0,299.34a4.88,4.88,0,0,0,5,5A5.44,5.44,0,0,0,10.32,299.18Z" style="fill:blue"/><path d="M11.93,258.39a4.8,4.8,0,0,0-5.32-4.84A5.78,5.78,0,0,0,1,258.87a4.87,4.87,0,0,0,5.32,4.84A5.81,5.81,0,0,0,11.93,258.39Z" style="fill:blue"/><path d="M13.54,217.6c.11-2.82-2.42-4.91-5.64-4.68s-5.9,2.68-6,5.47,2.46,4.89,5.64,4.68S13.43,220.42,13.54,217.6Z" style="fill:blue"/><path d="M15.14,176.81c.11-2.82-2.56-4.84-6-4.53S3,175.12,2.89,177.92s2.6,4.82,6,4.53S15,179.63,15.14,176.81Z" style="fill:blue"/><path d="M16.75,136c.11-2.82-2.7-4.77-6.29-4.37s-6.54,3-6.61,5.79,2.75,4.75,6.29,4.37S16.64,138.84,16.75,136Z" style="fill:blue"/><path d="M18.36,95.23c.11-2.82-2.85-4.7-6.61-4.21S4.89,94.17,4.82,97s2.89,4.68,6.61,4.21S18.25,98,18.36,95.23Z" style="fill:blue"/><path d="M20,54.44c.11-2.82-3-4.63-6.93-4.05S5.85,53.7,5.79,56.49s3,4.61,6.93,4.05S19.85,57.25,20,54.44Z" style="fill:blue"/></svg>