<svg xmlns="http://www.w3.org/2000/svg" viewBox="0 0 163.72 163.72"><title>featured</title><rect x="1.5" y="1.5" width="160.72" height="160.72" style="fill:#fff;stroke:#000;stroke-miterlimit:10;stroke-width:3px"/><path d="M27.37,51.43H22.16V25.62H36.48v4.48H27.37v6.66h8.48v4.47H27.37Z"/><path d="M86.78,51.43H72.39V25.62H86.78v4.48H77.68v5.67h8.46v4.48H77.68v6.66h9.09Z"/><path d="M138.3,51.43l-1.81-6.14h-9.11l-1.81,6.14h-5.71l8.82-25.92h6.48L144,51.43ZM135.23,40.7q-2.51-8.35-2.83-9.45t-.45-1.73q-.56,2.26-3.23,11.17Z"/><path d="M31.79,94.82H26.5V73.56H19.71V69H38.58v4.55H31.79Z"/><path d="M90.35,69v16.7a9.88,9.88,0,0,1-1.24,5A8.16,8.16,0,0,1,85.53,94,12.45,12.45,0,0,1,80,95.17q-4.82,0-7.49-2.55a9.21,9.21,0,0,1-2.67-7V69h5.28v15.8a6.78,6.78,0,0,0,1.16,4.38,4.75,4.75,0,0,0,3.85,1.39,4.64,4.64,0,0,0,3.77-1.4,6.81,6.81,0,0,0,1.17-4.41V69Z"/><path d="M129.35,84.92v9.9h-5.3V69h7.28q5.09,0,7.54,1.92a6.93,6.93,0,0,1,2.44,5.82,7,7,0,0,1-1.21,4.05,8.08,8.08,0,0,1-3.43,2.78q5.64,8.7,7.35,11.25h-5.88l-6-9.9Zm0-4.45h1.71a6.37,6.37,0,0,0,3.71-.87,3.13,3.13,0,0,0,1.2-2.72,2.86,2.86,0,0,0-1.22-2.61,7.21,7.21,0,0,0-3.79-.78h-1.61Z"/><path d="M36.55,138.21H22.16V112.4H36.55v4.48H27.45v5.67h8.46V127H27.45v6.66h9.09Z"/><path d="M142,125.06q0,6.37-3.51,9.76t-10.14,3.39h-7.08V112.4h7.84q6.12,0,9.5,3.34T142,125.06Zm-5.5.14q0-8.32-7.11-8.32h-2.82v16.81h2.27Q136.47,133.69,136.47,125.2Z"/><line x1="69.33" y1="126.23" x2="90.33" y2="126.23" style="fill:none;stroke:blue;stroke-miterlimit:10;stroke-width:5px"/></svg>