<svg xmlns="http://www.w3.org/2000/svg" viewBox="0 0 210.67 73"><title>logo</title><rect x="1.5" y="1.5" width="207.67" height="70" style="fill:#fff;stroke:#111;stroke-miterlimit:10;stroke-width:3px"/><path d="M50.38,37.25,48.81,45.1h-3l1.52-7.66a5.05,5.05,0,0,0,.1-.82,1.45,1.45,0,0,0-1.5-1.57,2.6,2.6,0,0,0-2.56,2.42L41.86,45.1h-3l1.52-7.66a5.06,5.06,0,0,0,.1-.82A1.43,1.43,0,0,0,39,35.05a2.62,2.62,0,0,0-2.59,2.42L34.9,45.1h-3l2.51-12.59h2.88L37,33.72a4.59,4.59,0,0,1,3.31-1.35A3.11,3.11,0,0,1,43.09,34,4.89,4.89,0,0,1,47,32.37a3.36,3.36,0,0,1,3.5,3.48,7.36,7.36,0,0,1-.14,1.4" style="fill:#111"/><path d="M55,45.1H52l2.51-12.59h3Zm2.95-14.66H54.88l.48-2.49h3.09Z" style="fill:#111"/><path d="M66.84,36.09a2.09,2.09,0,0,0-1.74-1,2.4,2.4,0,0,0-1.79.8A5.85,5.85,0,0,0,62,38.8a8.93,8.93,0,0,0-.17,1.62c0,1.33.63,2.15,1.79,2.15a3,3,0,0,0,2.2-1.06l1.67,2.15a6.08,6.08,0,0,1-4.16,1.59,4.27,4.27,0,0,1-4.52-4.49,11.18,11.18,0,0,1,.19-2c.94-5.12,3.84-6.43,6.4-6.43a4.37,4.37,0,0,1,3.7,1.74Z" style="fill:#111"/><path d="M80.93,37.25,79.35,45.1h-3l1.52-7.66a5.05,5.05,0,0,0,.1-.82,1.43,1.43,0,0,0-1.47-1.57,2.62,2.62,0,0,0-2.58,2.42L72.4,45.1h-3l3.43-17.2h3L74.72,33.5a4.46,4.46,0,0,1,3.09-1.14,3.2,3.2,0,0,1,3.29,3.48,8,8,0,0,1-.17,1.4" style="fill:#111"/><path d="M93.32,37,91.68,45.1H88.8L89,44a4.12,4.12,0,0,1-3,1.23,3.29,3.29,0,0,1-3.6-3.31,4.08,4.08,0,0,1,1.14-3,5.08,5.08,0,0,1,3.67-1.3h3l.17-.75a2.84,2.84,0,0,0,.07-.65c0-.85-.6-1.35-1.86-1.35a3.44,3.44,0,0,0-2.71,1.18l-1.55-2A5.91,5.91,0,0,1,89,32.37c2.1,0,4.47.82,4.47,3.5A5.79,5.79,0,0,1,93.32,37m-5.85,2.71a1.93,1.93,0,0,0-2.15,1.93c0,.7.51,1.18,1.59,1.18a2.73,2.73,0,0,0,2-.77,3.07,3.07,0,0,0,.75-1.59l.14-.75Z" style="fill:#111"/><path d="M105.79,39.71H98.25a6,6,0,0,0-.1.89,1.93,1.93,0,0,0,2.15,2.1,4.15,4.15,0,0,0,3-1.28l1.57,2a7,7,0,0,1-4.9,1.84c-2.2,0-4.66-1.11-4.66-4.42,0-4.23,2.08-8.46,6.4-8.46a4.22,4.22,0,0,1,4.47,4.49,14.09,14.09,0,0,1-.39,2.85m-4.25-4.88c-1.28,0-2.34.85-2.9,2.88h4.61a5,5,0,0,0,.07-.85c0-1.3-.7-2-1.79-2" style="fill:#111"/><path d="M151,36.95l-1.57,7.85h-3l1.52-7.66a5.05,5.05,0,0,0,.1-.82,1.45,1.45,0,0,0-1.5-1.57A2.6,2.6,0,0,0,144,37.16l-1.52,7.63h-3L141,37.14a5.05,5.05,0,0,0,.1-.82,1.43,1.43,0,0,0-1.47-1.57A2.62,2.62,0,0,0,137,37.16l-1.52,7.63h-3L135,32.21h2.88l-.24,1.21A4.59,4.59,0,0,1,141,32.07a3.11,3.11,0,0,1,2.73,1.62,4.89,4.89,0,0,1,3.94-1.62,3.36,3.36,0,0,1,3.5,3.48,7.36,7.36,0,0,1-.14,1.4" style="fill:#111"/><path d="M155.59,44.8h-3l2.51-12.59h3Zm2.95-14.66h-3.07l.48-2.49H159Z" style="fill:#111"/><path d="M166.27,34.87H164.2L163,41.05a1.74,1.74,0,0,0,0,.46c0,.51.31.77,1,.77H165l-.51,2.51h-1.55a2.74,2.74,0,0,1-3-2.73,5.62,5.62,0,0,1,.1-1l1.23-6.16h-1.28l.46-2.32h1.28l.75-3.72h3l-.75,3.72h2.08Z" style="fill:#111"/><path d="M178.6,36.95,177,44.8h-3l1.52-7.66a5.05,5.05,0,0,0,.1-.82,1.43,1.43,0,0,0-1.47-1.57,2.62,2.62,0,0,0-2.58,2.42l-1.52,7.63h-3l3.43-17.2h3l-1.11,5.61a4.46,4.46,0,0,1,3.09-1.14,3.2,3.2,0,0,1,3.29,3.48,8,8,0,0,1-.17,1.4" style="fill:#111"/><polygon points="123.59 24 115.33 49 112.51 49 120.77 24 123.59 24" style="fill:#111"/><path d="M109.72,44.86l1.83-5.54,2.28-11.42h-3l-2.68,13.43a4.75,4.75,0,0,0-.1,1,2.54,2.54,0,0,0,1.66,2.49" style="fill:#111"/><path d="M127.81,37.26,126.19,37c-.77-.12-1.16-.41-1.16-.94,0-.77.68-1.52,2.2-1.52a3.34,3.34,0,0,1,2.39.89l2.05-1.81a5.38,5.38,0,0,0-4.18-1.55,7.18,7.18,0,0,0-2.55.43l-2,6.11a4.27,4.27,0,0,0,2.13.9l1.64.27c.72.12,1.18.36,1.18,1s-.85,1.57-2.56,1.57a3.52,3.52,0,0,1-2.9-1.21l-.49.43-.75,2.26a6.62,6.62,0,0,0,3.94,1.08,6.42,6.42,0,0,0,4.37-1.38,4.12,4.12,0,0,0,1.35-3c0-1.74-.8-2.9-3-3.26" style="fill:#111"/></svg>