<svg xmlns="http://www.w3.org/2000/svg" viewBox="0 0 145.66 145.66"><title>visual-design-icon</title><rect x="22.83" y="22.83" width="100" height="100" transform="translate(72.83 -30.17) rotate(45)" fill="none" stroke="blue" stroke-miterlimit="10" stroke-width="3" class="diamond"/><path d="M102,60.34l-2.12-2.12-4.4,4.4L83.91,51l-1.15-1.15,4.4-4.4L85,43.35l-6.52,6.52,2.3,2.29c-1.73,1.65-7,5.2-20.09,5.32H59.61L47.76,98l40.6-11.76V85.13c.11-13.18,3.73-18.35,5.38-20l1.76,1.76ZM85.39,84,55.25,92.71,69,78.93a5.56,5.56,0,1,0-2.12-2.12L53,90.7l8.84-30.24c13.13-.31,18.85-4,21.07-6.18L91.63,63C89.45,65.19,85.7,70.87,85.39,84ZM69.2,74.15a2.5,2.5,0,1,1,1.57,2.32l-1.38-1.38A2.5,2.5,0,0,1,69.2,74.15Z"/></svg>
